<svg width="202" height="48" viewBox="0 0 202 48" fill="none" xmlns="http://www.w3.org/2000/svg">
<rect width="202" height="48" fill="#D9D9D9"/>
<path d="M67.736 32V30.352L70.968 26.976C71.608 26.304 72.0987 25.7707 72.44 25.376C72.792 24.9707 73.0373 24.624 73.176 24.336C73.3147 24.048 73.384 23.7547 73.384 23.456C73.384 22.9547 73.224 22.56 72.904 22.272C72.5947 21.984 72.1947 21.84 71.704 21.84C71.192 21.84 70.7493 21.9893 70.376 22.288C70.0027 22.576 69.7307 23.0027 69.56 23.568L67.656 22.976C67.784 22.3467 68.0453 21.8027 68.44 21.344C68.8347 20.8747 69.3147 20.5173 69.88 20.272C70.456 20.016 71.064 19.888 71.704 19.888C72.472 19.888 73.144 20.0267 73.72 20.304C74.3067 20.5813 74.76 20.9707 75.08 21.472C75.4107 21.9733 75.576 22.56 75.576 23.232C75.576 23.6587 75.496 24.08 75.336 24.496C75.176 24.912 74.936 25.3387 74.616 25.776C74.296 26.2027 73.88 26.6827 73.368 27.216L70.568 30.16H75.736V32H67.736ZM82.2109 32.192C81.2615 32.192 80.4295 31.936 79.7149 31.424C79.0002 30.912 78.4402 30.192 78.0349 29.264C77.6402 28.336 77.4429 27.2587 77.4429 26.032C77.4429 24.7947 77.6402 23.7173 78.0349 22.8C78.4295 21.8827 78.9842 21.168 79.6989 20.656C80.4135 20.144 81.2455 19.888 82.1949 19.888C83.1655 19.888 84.0029 20.144 84.7069 20.656C85.4215 21.168 85.9815 21.888 86.3869 22.816C86.7922 23.7333 86.9949 24.8053 86.9949 26.032C86.9949 27.2587 86.7922 28.336 86.3869 29.264C85.9922 30.1813 85.4375 30.9013 84.7229 31.424C84.0082 31.936 83.1709 32.192 82.2109 32.192ZM82.2269 30.208C82.7709 30.208 83.2349 30.0427 83.6189 29.712C84.0029 29.3707 84.2962 28.8907 84.4989 28.272C84.7122 27.6427 84.8189 26.896 84.8189 26.032C84.8189 25.168 84.7122 24.4267 84.4989 23.808C84.2962 23.1787 83.9975 22.6987 83.6029 22.368C83.2189 22.0373 82.7495 21.872 82.1949 21.872C81.6615 21.872 81.2029 22.0373 80.8189 22.368C80.4349 22.6987 80.1362 23.1787 79.9229 23.808C79.7202 24.4267 79.6189 25.168 79.6189 26.032C79.6189 26.8853 79.7202 27.6267 79.9229 28.256C80.1362 28.8747 80.4349 29.3547 80.8189 29.696C81.2135 30.0373 81.6829 30.208 82.2269 30.208ZM88.611 32V30.352L91.843 26.976C92.483 26.304 92.9737 25.7707 93.315 25.376C93.667 24.9707 93.9123 24.624 94.051 24.336C94.1897 24.048 94.259 23.7547 94.259 23.456C94.259 22.9547 94.099 22.56 93.779 22.272C93.4697 21.984 93.0697 21.84 92.579 21.84C92.067 21.84 91.6243 21.9893 91.251 22.288C90.8777 22.576 90.6057 23.0027 90.435 23.568L88.531 22.976C88.659 22.3467 88.9203 21.8027 89.315 21.344C89.7097 20.8747 90.1897 20.5173 90.755 20.272C91.331 20.016 91.939 19.888 92.579 19.888C93.347 19.888 94.019 20.0267 94.595 20.304C95.1817 20.5813 95.635 20.9707 95.955 21.472C96.2857 21.9733 96.451 22.56 96.451 23.232C96.451 23.6587 96.371 24.08 96.211 24.496C96.051 24.912 95.811 25.3387 95.491 25.776C95.171 26.2027 94.755 26.6827 94.243 27.216L91.443 30.16H96.611V32H88.611ZM100.458 32L103.498 27.632L100.442 23.296H102.906L105.29 26.816H104.186L106.57 23.296H109.018L105.978 27.632L109.002 32H106.554L104.202 28.496H105.274L102.922 32H100.458ZM118.079 32V29.376H112.607V27.552L117.951 20.08H120.223V27.552H121.967V29.376H120.223V32H118.079ZM114.207 28.336L113.823 27.552H118.079V21.792L118.639 21.968L114.207 28.336ZM127.556 32.192C126.692 32.192 125.94 32.032 125.3 31.712C124.671 31.3813 124.18 30.9387 123.828 30.384C123.487 29.8293 123.316 29.2213 123.316 28.56C123.316 27.7813 123.524 27.1253 123.94 26.592C124.356 26.048 124.959 25.648 125.748 25.392L125.62 25.92C125.055 25.7387 124.607 25.3867 124.276 24.864C123.956 24.3413 123.796 23.7653 123.796 23.136C123.796 22.5067 123.956 21.9467 124.276 21.456C124.596 20.9653 125.039 20.5813 125.604 20.304C126.169 20.0267 126.82 19.888 127.556 19.888C128.281 19.888 128.921 20.0267 129.476 20.304C130.041 20.5813 130.484 20.9653 130.804 21.456C131.135 21.9467 131.3 22.5067 131.3 23.136C131.3 23.776 131.135 24.3573 130.804 24.88C130.484 25.392 130.041 25.744 129.476 25.936L129.364 25.376C130.153 25.6533 130.756 26.064 131.172 26.608C131.588 27.1413 131.796 27.7973 131.796 28.576C131.796 29.2373 131.62 29.8453 131.268 30.4C130.927 30.944 130.436 31.3813 129.796 31.712C129.167 32.032 128.42 32.192 127.556 32.192ZM127.556 30.352C127.972 30.352 128.335 30.2773 128.644 30.128C128.953 29.968 129.193 29.7493 129.364 29.472C129.535 29.184 129.62 28.8587 129.62 28.496C129.62 28.1227 129.535 27.8027 129.364 27.536C129.193 27.2587 128.953 27.0453 128.644 26.896C128.335 26.736 127.972 26.656 127.556 26.656C127.14 26.656 126.777 26.736 126.468 26.896C126.169 27.0453 125.935 27.2587 125.764 27.536C125.593 27.8027 125.508 28.1227 125.508 28.496C125.508 28.8587 125.593 29.184 125.764 29.472C125.935 29.7493 126.169 29.968 126.468 30.128C126.777 30.2773 127.14 30.352 127.556 30.352ZM127.556 24.816C127.865 24.816 128.137 24.7467 128.372 24.608C128.607 24.4693 128.788 24.288 128.916 24.064C129.055 23.8293 129.124 23.5627 129.124 23.264C129.124 22.9653 129.055 22.704 128.916 22.48C128.788 22.2453 128.607 22.064 128.372 21.936C128.137 21.7973 127.865 21.728 127.556 21.728C127.247 21.728 126.969 21.7973 126.724 21.936C126.489 22.064 126.303 22.2453 126.164 22.48C126.036 22.704 125.972 22.9653 125.972 23.264C125.972 23.5627 126.036 23.8293 126.164 24.064C126.303 24.288 126.489 24.4693 126.724 24.608C126.969 24.7467 127.247 24.816 127.556 24.816Z" fill="#7C7C7C"/>
</svg>
