<svg width="182" height="48" viewBox="0 0 182 48" fill="none" xmlns="http://www.w3.org/2000/svg">
<rect width="182" height="48" fill="#D9D9D9"/>
<path d="M60.768 32V21.936H58.464V20.08H62.944V32H60.768ZM69.5091 32.192C68.6451 32.192 67.8931 32.032 67.2531 31.712C66.6238 31.3813 66.1331 30.9387 65.7811 30.384C65.4398 29.8293 65.2691 29.2213 65.2691 28.56C65.2691 27.7813 65.4771 27.1253 65.8931 26.592C66.3091 26.048 66.9118 25.648 67.7011 25.392L67.5731 25.92C67.0078 25.7387 66.5598 25.3867 66.2291 24.864C65.9091 24.3413 65.7491 23.7653 65.7491 23.136C65.7491 22.5067 65.9091 21.9467 66.2291 21.456C66.5491 20.9653 66.9918 20.5813 67.5571 20.304C68.1225 20.0267 68.7731 19.888 69.5091 19.888C70.2345 19.888 70.8745 20.0267 71.4291 20.304C71.9945 20.5813 72.4371 20.9653 72.7571 21.456C73.0878 21.9467 73.2531 22.5067 73.2531 23.136C73.2531 23.776 73.0878 24.3573 72.7571 24.88C72.4371 25.392 71.9945 25.744 71.4291 25.936L71.3171 25.376C72.1065 25.6533 72.7091 26.064 73.1251 26.608C73.5411 27.1413 73.7491 27.7973 73.7491 28.576C73.7491 29.2373 73.5731 29.8453 73.2211 30.4C72.8798 30.944 72.3891 31.3813 71.7491 31.712C71.1198 32.032 70.3731 32.192 69.5091 32.192ZM69.5091 30.352C69.9251 30.352 70.2878 30.2773 70.5971 30.128C70.9065 29.968 71.1465 29.7493 71.3171 29.472C71.4878 29.184 71.5731 28.8587 71.5731 28.496C71.5731 28.1227 71.4878 27.8027 71.3171 27.536C71.1465 27.2587 70.9065 27.0453 70.5971 26.896C70.2878 26.736 69.9251 26.656 69.5091 26.656C69.0931 26.656 68.7305 26.736 68.4211 26.896C68.1225 27.0453 67.8878 27.2587 67.7171 27.536C67.5465 27.8027 67.4611 28.1227 67.4611 28.496C67.4611 28.8587 67.5465 29.184 67.7171 29.472C67.8878 29.7493 68.1225 29.968 68.4211 30.128C68.7305 30.2773 69.0931 30.352 69.5091 30.352ZM69.5091 24.816C69.8185 24.816 70.0905 24.7467 70.3251 24.608C70.5598 24.4693 70.7411 24.288 70.8691 24.064C71.0078 23.8293 71.0771 23.5627 71.0771 23.264C71.0771 22.9653 71.0078 22.704 70.8691 22.48C70.7411 22.2453 70.5598 22.064 70.3251 21.936C70.0905 21.7973 69.8185 21.728 69.5091 21.728C69.1998 21.728 68.9225 21.7973 68.6771 21.936C68.4425 22.064 68.2558 22.2453 68.1171 22.48C67.9891 22.704 67.9251 22.9653 67.9251 23.264C67.9251 23.5627 67.9891 23.8293 68.1171 24.064C68.2558 24.288 68.4425 24.4693 68.6771 24.608C68.9225 24.7467 69.1998 24.816 69.5091 24.816ZM75.2985 32V30.352L78.5305 26.976C79.1705 26.304 79.6612 25.7707 80.0025 25.376C80.3545 24.9707 80.5998 24.624 80.7385 24.336C80.8772 24.048 80.9465 23.7547 80.9465 23.456C80.9465 22.9547 80.7865 22.56 80.4665 22.272C80.1572 21.984 79.7572 21.84 79.2665 21.84C78.7545 21.84 78.3118 21.9893 77.9385 22.288C77.5652 22.576 77.2932 23.0027 77.1225 23.568L75.2185 22.976C75.3465 22.3467 75.6078 21.8027 76.0025 21.344C76.3972 20.8747 76.8772 20.5173 77.4425 20.272C78.0185 20.016 78.6265 19.888 79.2665 19.888C80.0345 19.888 80.7065 20.0267 81.2825 20.304C81.8692 20.5813 82.3225 20.9707 82.6425 21.472C82.9732 21.9733 83.1385 22.56 83.1385 23.232C83.1385 23.6587 83.0585 24.08 82.8985 24.496C82.7385 24.912 82.4985 25.3387 82.1785 25.776C81.8585 26.2027 81.4425 26.6827 80.9305 27.216L78.1305 30.16H83.2985V32H75.2985ZM87.1451 32L90.1851 27.632L87.1291 23.296H89.5931L91.9771 26.816H90.8731L93.2571 23.296H95.7051L92.6651 27.632L95.6891 32H93.2411L90.8891 28.496H91.9611L89.6091 32H87.1451ZM104.767 32V29.376H99.2948V27.552L104.639 20.08H106.911V27.552H108.655V29.376H106.911V32H104.767ZM100.895 28.336L100.511 27.552H104.767V21.792L105.327 21.968L100.895 28.336ZM114.244 32.192C113.38 32.192 112.628 32.032 111.988 31.712C111.358 31.3813 110.868 30.9387 110.516 30.384C110.174 29.8293 110.004 29.2213 110.004 28.56C110.004 27.7813 110.212 27.1253 110.628 26.592C111.044 26.048 111.646 25.648 112.436 25.392L112.308 25.92C111.742 25.7387 111.294 25.3867 110.964 24.864C110.644 24.3413 110.484 23.7653 110.484 23.136C110.484 22.5067 110.644 21.9467 110.964 21.456C111.284 20.9653 111.726 20.5813 112.292 20.304C112.857 20.0267 113.508 19.888 114.244 19.888C114.969 19.888 115.609 20.0267 116.164 20.304C116.729 20.5813 117.172 20.9653 117.492 21.456C117.822 21.9467 117.988 22.5067 117.988 23.136C117.988 23.776 117.822 24.3573 117.492 24.88C117.172 25.392 116.729 25.744 116.164 25.936L116.052 25.376C116.841 25.6533 117.444 26.064 117.86 26.608C118.276 27.1413 118.484 27.7973 118.484 28.576C118.484 29.2373 118.308 29.8453 117.956 30.4C117.614 30.944 117.124 31.3813 116.484 31.712C115.854 32.032 115.108 32.192 114.244 32.192ZM114.244 30.352C114.66 30.352 115.022 30.2773 115.332 30.128C115.641 29.968 115.881 29.7493 116.052 29.472C116.222 29.184 116.308 28.8587 116.308 28.496C116.308 28.1227 116.222 27.8027 116.052 27.536C115.881 27.2587 115.641 27.0453 115.332 26.896C115.022 26.736 114.66 26.656 114.244 26.656C113.828 26.656 113.465 26.736 113.156 26.896C112.857 27.0453 112.622 27.2587 112.452 27.536C112.281 27.8027 112.196 28.1227 112.196 28.496C112.196 28.8587 112.281 29.184 112.452 29.472C112.622 29.7493 112.857 29.968 113.156 30.128C113.465 30.2773 113.828 30.352 114.244 30.352ZM114.244 24.816C114.553 24.816 114.825 24.7467 115.06 24.608C115.294 24.4693 115.476 24.288 115.604 24.064C115.742 23.8293 115.812 23.5627 115.812 23.264C115.812 22.9653 115.742 22.704 115.604 22.48C115.476 22.2453 115.294 22.064 115.06 21.936C114.825 21.7973 114.553 21.728 114.244 21.728C113.934 21.728 113.657 21.7973 113.411 21.936C113.177 22.064 112.99 22.2453 112.852 22.48C112.724 22.704 112.66 22.9653 112.66 23.264C112.66 23.5627 112.724 23.8293 112.852 24.064C112.99 24.288 113.177 24.4693 113.411 24.608C113.657 24.7467 113.934 24.816 114.244 24.816Z" fill="#7C7C7C"/>
</svg>
