<svg width="230" height="48" viewBox="0 0 230 48" fill="none" xmlns="http://www.w3.org/2000/svg">
<rect width="230" height="48" fill="#D9D9D9"/>
<path d="M81.736 32V30.352L84.968 26.976C85.608 26.304 86.0987 25.7707 86.44 25.376C86.792 24.9707 87.0373 24.624 87.176 24.336C87.3147 24.048 87.384 23.7547 87.384 23.456C87.384 22.9547 87.224 22.56 86.904 22.272C86.5947 21.984 86.1947 21.84 85.704 21.84C85.192 21.84 84.7493 21.9893 84.376 22.288C84.0027 22.576 83.7307 23.0027 83.56 23.568L81.656 22.976C81.784 22.3467 82.0453 21.8027 82.44 21.344C82.8347 20.8747 83.3147 20.5173 83.88 20.272C84.456 20.016 85.064 19.888 85.704 19.888C86.472 19.888 87.144 20.0267 87.72 20.304C88.3067 20.5813 88.76 20.9707 89.08 21.472C89.4107 21.9733 89.576 22.56 89.576 23.232C89.576 23.6587 89.496 24.08 89.336 24.496C89.176 24.912 88.936 25.3387 88.616 25.776C88.296 26.2027 87.88 26.6827 87.368 27.216L84.568 30.16H89.736V32H81.736ZM95.2349 32.192C94.5842 32.192 93.9655 32.0747 93.3789 31.84C92.8029 31.5947 92.3069 31.2533 91.8909 30.816C91.4855 30.368 91.2082 29.84 91.0589 29.232L92.9629 28.56C93.1549 29.104 93.4482 29.52 93.8429 29.808C94.2375 30.0853 94.7015 30.224 95.2349 30.224C95.6615 30.224 96.0295 30.144 96.3389 29.984C96.6589 29.824 96.9095 29.5947 97.0909 29.296C97.2722 28.9867 97.3629 28.624 97.3629 28.208C97.3629 27.792 97.2722 27.44 97.0909 27.152C96.9202 26.8533 96.6749 26.624 96.3549 26.464C96.0349 26.304 95.6562 26.224 95.2189 26.224C95.0162 26.224 94.8029 26.2453 94.5789 26.288C94.3655 26.3307 94.1735 26.3947 94.0029 26.48L93.5069 25.44L96.5949 21.92H91.7309V20.08H99.0429V21.792L95.9389 25.424L95.9709 24.608C96.6855 24.6187 97.3095 24.7733 97.8429 25.072C98.3762 25.3707 98.7922 25.7813 99.0909 26.304C99.3895 26.8267 99.5389 27.44 99.5389 28.144C99.5389 28.912 99.3522 29.6053 98.9789 30.224C98.6055 30.832 98.0935 31.312 97.4429 31.664C96.7922 32.016 96.0562 32.192 95.2349 32.192ZM105.992 32.192C105.043 32.192 104.211 31.936 103.496 31.424C102.781 30.912 102.221 30.192 101.816 29.264C101.421 28.336 101.224 27.2587 101.224 26.032C101.224 24.7947 101.421 23.7173 101.816 22.8C102.211 21.8827 102.765 21.168 103.48 20.656C104.195 20.144 105.027 19.888 105.976 19.888C106.947 19.888 107.784 20.144 108.488 20.656C109.203 21.168 109.763 21.888 110.168 22.816C110.573 23.7333 110.776 24.8053 110.776 26.032C110.776 27.2587 110.573 28.336 110.168 29.264C109.773 30.1813 109.219 30.9013 108.504 31.424C107.789 31.936 106.952 32.192 105.992 32.192ZM106.008 30.208C106.552 30.208 107.016 30.0427 107.4 29.712C107.784 29.3707 108.077 28.8907 108.28 28.272C108.493 27.6427 108.6 26.896 108.6 26.032C108.6 25.168 108.493 24.4267 108.28 23.808C108.077 23.1787 107.779 22.6987 107.384 22.368C107 22.0373 106.531 21.872 105.976 21.872C105.443 21.872 104.984 22.0373 104.6 22.368C104.216 22.6987 103.917 23.1787 103.704 23.808C103.501 24.4267 103.4 25.168 103.4 26.032C103.4 26.8853 103.501 27.6267 103.704 28.256C103.917 28.8747 104.216 29.3547 104.6 29.696C104.995 30.0373 105.464 30.208 106.008 30.208ZM114.692 32L117.732 27.632L114.676 23.296H117.14L119.524 26.816H118.42L120.804 23.296H123.252L120.212 27.632L123.236 32H120.788L118.436 28.496H119.508L117.156 32H114.692ZM132.314 32V29.376H126.842V27.552L132.186 20.08H134.458V27.552H136.202V29.376H134.458V32H132.314ZM128.442 28.336L128.058 27.552H132.314V21.792L132.874 21.968L128.442 28.336ZM141.79 32.192C140.926 32.192 140.174 32.032 139.534 31.712C138.905 31.3813 138.414 30.9387 138.062 30.384C137.721 29.8293 137.55 29.2213 137.55 28.56C137.55 27.7813 137.758 27.1253 138.174 26.592C138.59 26.048 139.193 25.648 139.982 25.392L139.854 25.92C139.289 25.7387 138.841 25.3867 138.51 24.864C138.19 24.3413 138.03 23.7653 138.03 23.136C138.03 22.5067 138.19 21.9467 138.51 21.456C138.83 20.9653 139.273 20.5813 139.838 20.304C140.404 20.0267 141.054 19.888 141.79 19.888C142.516 19.888 143.156 20.0267 143.71 20.304C144.276 20.5813 144.718 20.9653 145.038 21.456C145.369 21.9467 145.534 22.5067 145.534 23.136C145.534 23.776 145.369 24.3573 145.038 24.88C144.718 25.392 144.276 25.744 143.71 25.936L143.598 25.376C144.388 25.6533 144.99 26.064 145.406 26.608C145.822 27.1413 146.03 27.7973 146.03 28.576C146.03 29.2373 145.854 29.8453 145.502 30.4C145.161 30.944 144.67 31.3813 144.03 31.712C143.401 32.032 142.654 32.192 141.79 32.192ZM141.79 30.352C142.206 30.352 142.569 30.2773 142.878 30.128C143.188 29.968 143.428 29.7493 143.598 29.472C143.769 29.184 143.854 28.8587 143.854 28.496C143.854 28.1227 143.769 27.8027 143.598 27.536C143.428 27.2587 143.188 27.0453 142.878 26.896C142.569 26.736 142.206 26.656 141.79 26.656C141.374 26.656 141.012 26.736 140.702 26.896C140.404 27.0453 140.169 27.2587 139.998 27.536C139.828 27.8027 139.742 28.1227 139.742 28.496C139.742 28.8587 139.828 29.184 139.998 29.472C140.169 29.7493 140.404 29.968 140.702 30.128C141.012 30.2773 141.374 30.352 141.79 30.352ZM141.79 24.816C142.1 24.816 142.372 24.7467 142.606 24.608C142.841 24.4693 143.022 24.288 143.15 24.064C143.289 23.8293 143.358 23.5627 143.358 23.264C143.358 22.9653 143.289 22.704 143.15 22.48C143.022 22.2453 142.841 22.064 142.606 21.936C142.372 21.7973 142.1 21.728 141.79 21.728C141.481 21.728 141.204 21.7973 140.958 21.936C140.724 22.064 140.537 22.2453 140.398 22.48C140.27 22.704 140.206 22.9653 140.206 23.264C140.206 23.5627 140.27 23.8293 140.398 24.064C140.537 24.288 140.724 24.4693 140.958 24.608C141.204 24.7467 141.481 24.816 141.79 24.816Z" fill="#7C7C7C"/>
</svg>
