<svg width="260" height="48" viewBox="0 0 260 48" fill="none" xmlns="http://www.w3.org/2000/svg">
<rect width="260" height="48" fill="#D9D9D9"/>
<path d="M97.736 32V30.352L100.968 26.976C101.608 26.304 102.099 25.7707 102.44 25.376C102.792 24.9707 103.037 24.624 103.176 24.336C103.315 24.048 103.384 23.7547 103.384 23.456C103.384 22.9547 103.224 22.56 102.904 22.272C102.595 21.984 102.195 21.84 101.704 21.84C101.192 21.84 100.749 21.9893 100.376 22.288C100.003 22.576 99.7307 23.0027 99.56 23.568L97.656 22.976C97.784 22.3467 98.0453 21.8027 98.44 21.344C98.8347 20.8747 99.3147 20.5173 99.88 20.272C100.456 20.016 101.064 19.888 101.704 19.888C102.472 19.888 103.144 20.0267 103.72 20.304C104.307 20.5813 104.76 20.9707 105.08 21.472C105.411 21.9733 105.576 22.56 105.576 23.232C105.576 23.6587 105.496 24.08 105.336 24.496C105.176 24.912 104.936 25.3387 104.616 25.776C104.296 26.2027 103.88 26.6827 103.368 27.216L100.568 30.16H105.736V32H97.736ZM111.379 32.192C110.568 32.192 109.848 32.0213 109.219 31.68C108.6 31.328 108.115 30.8587 107.763 30.272C107.411 29.6747 107.235 28.9973 107.235 28.24C107.235 27.856 107.272 27.472 107.347 27.088C107.432 26.704 107.582 26.2933 107.795 25.856C108.019 25.4187 108.339 24.9333 108.755 24.4L112.083 20.08H114.675L110.627 25.28L110.275 24.896C110.424 24.7787 110.579 24.688 110.739 24.624C110.899 24.5493 111.059 24.496 111.219 24.464C111.39 24.432 111.566 24.416 111.747 24.416C112.472 24.416 113.118 24.5813 113.683 24.912C114.248 25.2427 114.691 25.696 115.011 26.272C115.342 26.8373 115.507 27.4773 115.507 28.192C115.507 28.96 115.331 29.648 114.979 30.256C114.627 30.8533 114.136 31.328 113.507 31.68C112.888 32.0213 112.179 32.192 111.379 32.192ZM111.379 30.224C111.742 30.224 112.067 30.144 112.355 29.984C112.654 29.8133 112.888 29.5733 113.059 29.264C113.24 28.9547 113.331 28.608 113.331 28.224C113.331 27.8187 113.24 27.472 113.059 27.184C112.888 26.8853 112.659 26.6507 112.371 26.48C112.083 26.3093 111.752 26.224 111.379 26.224C111.016 26.224 110.686 26.3093 110.387 26.48C110.088 26.6507 109.848 26.8853 109.667 27.184C109.496 27.472 109.411 27.8187 109.411 28.224C109.411 28.608 109.496 28.9547 109.667 29.264C109.848 29.5733 110.088 29.8133 110.387 29.984C110.686 30.144 111.016 30.224 111.379 30.224ZM121.836 32.192C120.887 32.192 120.055 31.936 119.34 31.424C118.625 30.912 118.065 30.192 117.66 29.264C117.265 28.336 117.068 27.2587 117.068 26.032C117.068 24.7947 117.265 23.7173 117.66 22.8C118.055 21.8827 118.609 21.168 119.324 20.656C120.039 20.144 120.871 19.888 121.82 19.888C122.791 19.888 123.628 20.144 124.332 20.656C125.047 21.168 125.607 21.888 126.012 22.816C126.417 23.7333 126.62 24.8053 126.62 26.032C126.62 27.2587 126.417 28.336 126.012 29.264C125.617 30.1813 125.063 30.9013 124.348 31.424C123.633 31.936 122.796 32.192 121.836 32.192ZM121.852 30.208C122.396 30.208 122.86 30.0427 123.244 29.712C123.628 29.3707 123.921 28.8907 124.124 28.272C124.337 27.6427 124.444 26.896 124.444 26.032C124.444 25.168 124.337 24.4267 124.124 23.808C123.921 23.1787 123.623 22.6987 123.228 22.368C122.844 22.0373 122.375 21.872 121.82 21.872C121.287 21.872 120.828 22.0373 120.444 22.368C120.06 22.6987 119.761 23.1787 119.548 23.808C119.345 24.4267 119.244 25.168 119.244 26.032C119.244 26.8853 119.345 27.6267 119.548 28.256C119.761 28.8747 120.06 29.3547 120.444 29.696C120.839 30.0373 121.308 30.208 121.852 30.208ZM130.536 32L133.576 27.632L130.52 23.296H132.984L135.368 26.816H134.264L136.648 23.296H139.096L136.056 27.632L139.08 32H136.632L134.28 28.496H135.352L133 32H130.536ZM148.157 32V29.376H142.685V27.552L148.029 20.08H150.301V27.552H152.045V29.376H150.301V32H148.157ZM144.285 28.336L143.901 27.552H148.157V21.792L148.717 21.968L144.285 28.336ZM157.634 32.192C156.77 32.192 156.018 32.032 155.378 31.712C154.749 31.3813 154.258 30.9387 153.906 30.384C153.565 29.8293 153.394 29.2213 153.394 28.56C153.394 27.7813 153.602 27.1253 154.018 26.592C154.434 26.048 155.037 25.648 155.826 25.392L155.698 25.92C155.133 25.7387 154.685 25.3867 154.354 24.864C154.034 24.3413 153.874 23.7653 153.874 23.136C153.874 22.5067 154.034 21.9467 154.354 21.456C154.674 20.9653 155.117 20.5813 155.682 20.304C156.247 20.0267 156.898 19.888 157.634 19.888C158.359 19.888 158.999 20.0267 159.554 20.304C160.119 20.5813 160.562 20.9653 160.882 21.456C161.213 21.9467 161.378 22.5067 161.378 23.136C161.378 23.776 161.213 24.3573 160.882 24.88C160.562 25.392 160.119 25.744 159.554 25.936L159.442 25.376C160.231 25.6533 160.834 26.064 161.25 26.608C161.666 27.1413 161.874 27.7973 161.874 28.576C161.874 29.2373 161.698 29.8453 161.346 30.4C161.005 30.944 160.514 31.3813 159.874 31.712C159.245 32.032 158.498 32.192 157.634 32.192ZM157.634 30.352C158.05 30.352 158.413 30.2773 158.722 30.128C159.031 29.968 159.271 29.7493 159.442 29.472C159.613 29.184 159.698 28.8587 159.698 28.496C159.698 28.1227 159.613 27.8027 159.442 27.536C159.271 27.2587 159.031 27.0453 158.722 26.896C158.413 26.736 158.05 26.656 157.634 26.656C157.218 26.656 156.855 26.736 156.546 26.896C156.247 27.0453 156.013 27.2587 155.842 27.536C155.671 27.8027 155.586 28.1227 155.586 28.496C155.586 28.8587 155.671 29.184 155.842 29.472C156.013 29.7493 156.247 29.968 156.546 30.128C156.855 30.2773 157.218 30.352 157.634 30.352ZM157.634 24.816C157.943 24.816 158.215 24.7467 158.45 24.608C158.685 24.4693 158.866 24.288 158.994 24.064C159.133 23.8293 159.202 23.5627 159.202 23.264C159.202 22.9653 159.133 22.704 158.994 22.48C158.866 22.2453 158.685 22.064 158.45 21.936C158.215 21.7973 157.943 21.728 157.634 21.728C157.325 21.728 157.047 21.7973 156.802 21.936C156.567 22.064 156.381 22.2453 156.242 22.48C156.114 22.704 156.05 22.9653 156.05 23.264C156.05 23.5627 156.114 23.8293 156.242 24.064C156.381 24.288 156.567 24.4693 156.802 24.608C157.047 24.7467 157.325 24.816 157.634 24.816Z" fill="#7C7C7C"/>
</svg>
