<svg width="152" height="48" viewBox="0 0 152 48" fill="none" xmlns="http://www.w3.org/2000/svg">
<rect width="152" height="48" fill="#D9D9D9"/>
<path d="M45.768 32V21.936H43.464V20.08H47.944V32H45.768ZM54.2051 32.192C53.5758 32.192 52.9731 32.0747 52.3971 31.84C51.8318 31.6053 51.3411 31.2747 50.9251 30.848C50.5198 30.4107 50.2425 29.8933 50.0931 29.296L51.9811 28.624C52.1625 29.168 52.4558 29.5733 52.8611 29.84C53.2665 30.096 53.7145 30.224 54.2051 30.224C54.6105 30.224 54.9678 30.1387 55.2771 29.968C55.5971 29.7867 55.8425 29.5413 56.0131 29.232C56.1838 28.912 56.2691 28.544 56.2691 28.128C56.2691 27.712 56.1785 27.3493 55.9971 27.04C55.8265 26.7307 55.5865 26.4907 55.2771 26.32C54.9678 26.1387 54.6105 26.048 54.2051 26.048C53.7891 26.048 53.4105 26.1387 53.0691 26.32C52.7385 26.5013 52.4985 26.7627 52.3491 27.104L50.5731 26.704L51.5171 20.08H58.0131V21.92H52.3811L53.1971 20.976L52.5251 25.968L51.9011 25.456C52.1998 25.0187 52.5625 24.6987 52.9891 24.496C53.4265 24.2933 53.9545 24.192 54.5731 24.192C55.3625 24.192 56.0451 24.3627 56.6211 24.704C57.2078 25.0453 57.6611 25.5093 57.9811 26.096C58.3011 26.6827 58.4611 27.36 58.4611 28.128C58.4611 28.896 58.2745 29.5893 57.9011 30.208C57.5278 30.8267 57.0211 31.312 56.3811 31.664C55.7411 32.016 55.0158 32.192 54.2051 32.192ZM60.0329 32V30.352L63.2649 26.976C63.9049 26.304 64.3955 25.7707 64.7369 25.376C65.0889 24.9707 65.3342 24.624 65.4729 24.336C65.6115 24.048 65.6809 23.7547 65.6809 23.456C65.6809 22.9547 65.5209 22.56 65.2009 22.272C64.8915 21.984 64.4915 21.84 64.0009 21.84C63.4889 21.84 63.0462 21.9893 62.6729 22.288C62.2995 22.576 62.0275 23.0027 61.8569 23.568L59.9529 22.976C60.0809 22.3467 60.3422 21.8027 60.7369 21.344C61.1315 20.8747 61.6115 20.5173 62.1769 20.272C62.7529 20.016 63.3609 19.888 64.0009 19.888C64.7689 19.888 65.4409 20.0267 66.0169 20.304C66.6035 20.5813 67.0569 20.9707 67.3769 21.472C67.7075 21.9733 67.8729 22.56 67.8729 23.232C67.8729 23.6587 67.7929 24.08 67.6329 24.496C67.4729 24.912 67.2329 25.3387 66.9129 25.776C66.5929 26.2027 66.1769 26.6827 65.6649 27.216L62.8649 30.16H68.0329V32H60.0329ZM71.8795 32L74.9195 27.632L71.8635 23.296H74.3275L76.7115 26.816H75.6075L77.9915 23.296H80.4395L77.3995 27.632L80.4235 32H77.9755L75.6235 28.496H76.6955L74.3435 32H71.8795ZM89.5011 32V29.376H84.0291V27.552L89.3731 20.08H91.6451V27.552H93.3891V29.376H91.6451V32H89.5011ZM85.6291 28.336L85.2451 27.552H89.5011V21.792L90.0611 21.968L85.6291 28.336ZM98.9779 32.192C98.1139 32.192 97.3619 32.032 96.7219 31.712C96.0925 31.3813 95.6019 30.9387 95.2499 30.384C94.9085 29.8293 94.7379 29.2213 94.7379 28.56C94.7379 27.7813 94.9459 27.1253 95.3619 26.592C95.7779 26.048 96.3805 25.648 97.1699 25.392L97.0419 25.92C96.4765 25.7387 96.0285 25.3867 95.6979 24.864C95.3779 24.3413 95.2179 23.7653 95.2179 23.136C95.2179 22.5067 95.3779 21.9467 95.6979 21.456C96.0179 20.9653 96.4605 20.5813 97.0259 20.304C97.5912 20.0267 98.2419 19.888 98.9779 19.888C99.7032 19.888 100.343 20.0267 100.898 20.304C101.463 20.5813 101.906 20.9653 102.226 21.456C102.557 21.9467 102.722 22.5067 102.722 23.136C102.722 23.776 102.557 24.3573 102.226 24.88C101.906 25.392 101.463 25.744 100.898 25.936L100.786 25.376C101.575 25.6533 102.178 26.064 102.594 26.608C103.01 27.1413 103.218 27.7973 103.218 28.576C103.218 29.2373 103.042 29.8453 102.69 30.4C102.349 30.944 101.858 31.3813 101.218 31.712C100.589 32.032 99.8419 32.192 98.9779 32.192ZM98.9779 30.352C99.3939 30.352 99.7565 30.2773 100.066 30.128C100.375 29.968 100.615 29.7493 100.786 29.472C100.957 29.184 101.042 28.8587 101.042 28.496C101.042 28.1227 100.957 27.8027 100.786 27.536C100.615 27.2587 100.375 27.0453 100.066 26.896C99.7565 26.736 99.3939 26.656 98.9779 26.656C98.5619 26.656 98.1992 26.736 97.8899 26.896C97.5912 27.0453 97.3565 27.2587 97.1859 27.536C97.0152 27.8027 96.9299 28.1227 96.9299 28.496C96.9299 28.8587 97.0152 29.184 97.1859 29.472C97.3565 29.7493 97.5912 29.968 97.8899 30.128C98.1992 30.2773 98.5619 30.352 98.9779 30.352ZM98.9779 24.816C99.2872 24.816 99.5592 24.7467 99.7939 24.608C100.029 24.4693 100.21 24.288 100.338 24.064C100.477 23.8293 100.546 23.5627 100.546 23.264C100.546 22.9653 100.477 22.704 100.338 22.48C100.21 22.2453 100.029 22.064 99.7939 21.936C99.5592 21.7973 99.2872 21.728 98.9779 21.728C98.6685 21.728 98.3912 21.7973 98.1459 21.936C97.9112 22.064 97.7245 22.2453 97.5859 22.48C97.4579 22.704 97.3939 22.9653 97.3939 23.264C97.3939 23.5627 97.4579 23.8293 97.5859 24.064C97.7245 24.288 97.9112 24.4693 98.1459 24.608C98.3912 24.7467 98.6685 24.816 98.9779 24.816Z" fill="#7C7C7C"/>
</svg>
